<svg xmlns="http://www.w3.org/2000/svg" xmlns:xlink="http://www.w3.org/1999/xlink" version="1.1" class="marks" width="741" height="475" viewBox="0 0 741 475"><rect width="741" height="475" fill="white"/><g fill="none" stroke-miterlimit="10" transform="translate(89,33)"><g class="mark-group role-frame root" role="graphics-object" aria-roledescription="group mark container"><g transform="translate(0,0)"><path class="background" aria-hidden="true" d="M0,0h640v400h-640Z"/><g><g class="mark-group role-axis" role="graphics-symbol" aria-roledescription="axis" aria-label="X-axis titled 'gradient (%)' for a linear scale with values from −20 to 20"><g transform="translate(0.5,400.5)"><path class="background" aria-hidden="true" d="M0,0h0v0h0Z" pointer-events="none"/><g><g class="mark-rule role-axis-tick" pointer-events="none"><line transform="translate(0,0)" x2="0" y2="4" stroke="#888" stroke-width="1" opacity="1"/><line transform="translate(32,0)" x2="0" y2="4" stroke="#888" stroke-width="1" opacity="1"/><line transform="translate(64,0)" x2="0" y2="4" stroke="#888" stroke-width="1" opacity="1"/><line transform="translate(96,0)" x2="0" y2="4" stroke="#888" stroke-width="1" opacity="1"/><line transform="translate(128,0)" x2="0" y2="4" stroke="#888" stroke-width="1" opacity="1"/><line transform="translate(160,0)" x2="0" y2="4" stroke="#888" stroke-width="1" opacity="1"/><line transform="translate(192,0)" x2="0" y2="4" stroke="#888" stroke-width="1" opacity="1"/><line transform="translate(224,0)" x2="0" y2="4" stroke="#888" stroke-width="1" opacity="1"/><line transform="translate(256,0)" x2="0" y2="4" stroke="#888" stroke-width="1" opacity="1"/><line transform="translate(288,0)" x2="0" y2="4" stroke="#888" stroke-width="1" opacity="1"/><line transform="translate(320,0)" x2="0" y2="4" stroke="#888" stroke-width="1" opacity="1"/><line transform="translate(352,0)" x2="0" y2="4" stroke="#888" stroke-width="1" opacity="1"/><line transform="translate(384,0)" x2="0" y2="4" stroke="#888" stroke-width="1" opacity="1"/><line transform="translate(416,0)" x2="0" y2="4" stroke="#888" stroke-width="1" opacity="1"/><line transform="translate(448,0)" x2="0" y2="4" stroke="#888" stroke-width="1" opacity="1"/><line transform="translate(480,0)" x2="0" y2="4" stroke="#888" stroke-width="1" opacity="1"/><line transform="translate(512,0)" x2="0" y2="4" stroke="#888" stroke-width="1" opacity="1"/><line transform="translate(544,0)" x2="0" y2="4" stroke="#888" stroke-width="1" opacity="1"/><line transform="translate(576,0)" x2="0" y2="4" stroke="#888" stroke-width="1" opacity="1"/><line transform="translate(608,0)" x2="0" y2="4" stroke="#888" stroke-width="1" opacity="1"/><line transform="translate(640,0)" x2="0" y2="4" stroke="#888" stroke-width="1" opacity="1"/></g><g class="mark-text role-axis-label" pointer-events="none"><text text-anchor="start" transform="translate(0,15)" font-family="Helvetica, Arial, sans-serif" font-size="11px" fill="#333" opacity="1">−20</text><text text-anchor="middle" transform="translate(32,15)" font-family="Helvetica, Arial, sans-serif" font-size="11px" fill="#333" opacity="1">−18</text><text text-anchor="middle" transform="translate(64,15)" font-family="Helvetica, Arial, sans-serif" font-size="11px" fill="#333" opacity="1">−16</text><text text-anchor="middle" transform="translate(96,15)" font-family="Helvetica, Arial, sans-serif" font-size="11px" fill="#333" opacity="1">−14</text><text text-anchor="middle" transform="translate(128,15)" font-family="Helvetica, Arial, sans-serif" font-size="11px" fill="#333" opacity="1">−12</text><text text-anchor="middle" transform="translate(160,15)" font-family="Helvetica, Arial, sans-serif" font-size="11px" fill="#333" opacity="1">−10</text><text text-anchor="middle" transform="translate(192,15)" font-family="Helvetica, Arial, sans-serif" font-size="11px" fill="#333" opacity="1">−8</text><text text-anchor="middle" transform="translate(224,15)" font-family="Helvetica, Arial, sans-serif" font-size="11px" fill="#333" opacity="1">−6</text><text text-anchor="middle" transform="translate(256,15)" font-family="Helvetica, Arial, sans-serif" font-size="11px" fill="#333" opacity="1">−4</text><text text-anchor="middle" transform="translate(288,15)" font-family="Helvetica, Arial, sans-serif" font-size="11px" fill="#333" opacity="1">−2</text><text text-anchor="middle" transform="translate(320,15)" font-family="Helvetica, Arial, sans-serif" font-size="11px" fill="#333" opacity="1">0</text><text text-anchor="middle" transform="translate(352,15)" font-family="Helvetica, Arial, sans-serif" font-size="11px" fill="#333" opacity="1">2</text><text text-anchor="middle" transform="translate(384,15)" font-family="Helvetica, Arial, sans-serif" font-size="11px" fill="#333" opacity="1">4</text><text text-anchor="middle" transform="translate(416,15)" font-family="Helvetica, Arial, sans-serif" font-size="11px" fill="#333" opacity="1">6</text><text text-anchor="middle" transform="translate(448,15)" font-family="Helvetica, Arial, sans-serif" font-size="11px" fill="#333" opacity="1">8</text><text text-anchor="middle" transform="translate(480,15)" font-family="Helvetica, Arial, sans-serif" font-size="11px" fill="#333" opacity="1">10</text><text text-anchor="middle" transform="translate(512,15)" font-family="Helvetica, Arial, sans-serif" font-size="11px" fill="#333" opacity="1">12</text><text text-anchor="middle" transform="translate(544,15)" font-family="Helvetica, Arial, sans-serif" font-size="11px" fill="#333" opacity="1">14</text><text text-anchor="middle" transform="translate(576,15)" font-family="Helvetica, Arial, sans-serif" font-size="11px" fill="#333" opacity="1">16</text><text text-anchor="middle" transform="translate(608,15)" font-family="Helvetica, Arial, sans-serif" font-size="11px" fill="#333" opacity="1">18</text><text text-anchor="end" transform="translate(640,15)" font-family="Helvetica, Arial, sans-serif" font-size="11px" fill="#333" opacity="1">20</text></g><g class="mark-rule role-axis-domain" pointer-events="none"><line transform="translate(0,0)" x2="640" y2="0" stroke="#888" stroke-width="1" opacity="1"/></g><g class="mark-text role-axis-title" pointer-events="none"><text text-anchor="middle" transform="translate(320,30)" font-family="Helvetica, Arial, sans-serif" font-size="12px" font-weight="normal" fill="#333" opacity="1">gradient (%)</text></g></g><path class="foreground" aria-hidden="true" d="" pointer-events="none" display="none"/></g></g><g class="mark-group role-axis" role="graphics-symbol" aria-roledescription="axis" aria-label="Y-axis titled 'v(g) / v(0)' for a linear scale with values from 0 to 4"><g transform="translate(0.5,0.5)"><path class="background" aria-hidden="true" d="M0,0h0v0h0Z" pointer-events="none"/><g><g class="mark-rule role-axis-tick" pointer-events="none"><line transform="translate(0,400)" x2="-4" y2="0" stroke="#888" stroke-width="1" opacity="1"/><line transform="translate(0,350)" x2="-4" y2="0" stroke="#888" stroke-width="1" opacity="1"/><line transform="translate(0,300)" x2="-4" y2="0" stroke="#888" stroke-width="1" opacity="1"/><line transform="translate(0,250)" x2="-4" y2="0" stroke="#888" stroke-width="1" opacity="1"/><line transform="translate(0,200)" x2="-4" y2="0" stroke="#888" stroke-width="1" opacity="1"/><line transform="translate(0,150)" x2="-4" y2="0" stroke="#888" stroke-width="1" opacity="1"/><line transform="translate(0,100)" x2="-4" y2="0" stroke="#888" stroke-width="1" opacity="1"/><line transform="translate(0,50)" x2="-4" y2="0" stroke="#888" stroke-width="1" opacity="1"/><line transform="translate(0,0)" x2="-4" y2="0" stroke="#888" stroke-width="1" opacity="1"/></g><g class="mark-text role-axis-label" pointer-events="none"><text text-anchor="end" transform="translate(-6,403)" font-family="Helvetica, Arial, sans-serif" font-size="11px" fill="#333" opacity="1">0.0</text><text text-anchor="end" transform="translate(-6,353)" font-family="Helvetica, Arial, sans-serif" font-size="11px" fill="#333" opacity="1">0.5</text><text text-anchor="end" transform="translate(-6,303)" font-family="Helvetica, Arial, sans-serif" font-size="11px" fill="#333" opacity="1">1.0</text><text text-anchor="end" transform="translate(-6,253)" font-family="Helvetica, Arial, sans-serif" font-size="11px" fill="#333" opacity="1">1.5</text><text text-anchor="end" transform="translate(-6,203)" font-family="Helvetica, Arial, sans-serif" font-size="11px" fill="#333" opacity="1">2.0</text><text text-anchor="end" transform="translate(-6,153)" font-family="Helvetica, Arial, sans-serif" font-size="11px" fill="#333" opacity="1">2.5</text><text text-anchor="end" transform="translate(-6,103)" font-family="Helvetica, Arial, sans-serif" font-size="11px" fill="#333" opacity="1">3.0</text><text text-anchor="end" transform="translate(-6,53)" font-family="Helvetica, Arial, sans-serif" font-size="11px" fill="#333" opacity="1">3.5</text><text text-anchor="end" transform="translate(-6,3)" font-family="Helvetica, Arial, sans-serif" font-size="11px" fill="#333" opacity="1">4.0</text></g><g class="mark-rule role-axis-domain" pointer-events="none"><line transform="translate(0,400)" x2="0" y2="-400" stroke="#888" stroke-width="1" opacity="1"/></g><g class="mark-text role-axis-title" pointer-events="none"><text text-anchor="middle" transform="translate(-25.29150390625,200) rotate(-90) translate(0,-3)" font-family="Helvetica, Arial, sans-serif" font-size="12px" font-weight="normal" fill="#333" opacity="1">v(g) / v(0)</text></g></g><path class="foreground" aria-hidden="true" d="" pointer-events="none" display="none"/></g></g><g class="mark-rule role-mark layer_0_marks" role="graphics-object" aria-roledescription="rule mark container"><line aria-label="x: 0" role="graphics-symbol" aria-roledescription="rule mark" transform="translate(320,0)" x2="0" y2="400" stroke="grey" stroke-dasharray="2,2"/></g><g class="mark-rule role-mark layer_1_marks" role="graphics-object" aria-roledescription="rule mark container"><line aria-label="y: 1" role="graphics-symbol" aria-roledescription="rule mark" transform="translate(640,300)" x2="-640" y2="0" stroke="grey" stroke-dasharray="2,2"/></g><g class="mark-group role-scope layer_2_pathgroup" role="graphics-object" aria-roledescription="group mark container"><g transform="translate(0,0)"><path class="background" aria-hidden="true" d="M0,0h640v400h-640Z"/><g><g class="mark-line role-mark layer_2_marks" role="graphics-object" aria-roledescription="line mark container"><path aria-label="gradient (%): −20; v(g) / v(0): 3.65444922915; assumptions: constant power" role="graphics-symbol" aria-roledescription="line mark" d="M0,34.555L16,43.333L32,52.373L48,61.691L64,71.307L80,81.243L96,91.524L112,102.179L128,113.241L144,124.751L160,136.754L176,149.304L192,162.466L208,176.319L224,190.953L240,206.477L256,223.013L272,240.681L288,259.553L304,279.52L320,300L336,319.574L352,336.312L368,349.157L384,358.482L400,365.224L416,370.204L432,373.986L448,376.937L464,379.294L480,381.217L496,382.813L512,384.157L528,385.303L544,386.293L560,387.154L576,387.911L592,388.581L608,389.178L624,389.714L640,390.196" stroke="#EE6677" stroke-width="2"/></g></g><path class="foreground" aria-hidden="true" d="" display="none"/></g><g transform="translate(0,0)"><path class="background" aria-hidden="true" d="M0,0h640v400h-640Z"/><g><g class="mark-line role-mark layer_2_marks" role="graphics-object" aria-roledescription="line mark container"><path aria-label="gradient (%): −20; v(g) / v(0): 2.72240740157; assumptions: freewheel model" role="graphics-symbol" aria-roledescription="line mark" d="M0,127.759L16,133.549L32,139.521L48,145.687L64,152.064L80,158.67L96,165.525L112,172.653L128,180.086L144,187.857L160,196.013L176,204.61L192,213.719L208,223.437L224,233.895L240,245.286L256,257.9L272,272.233L288,289.246L304,289.564L320,300L336,306.835L352,312.439L368,317.004L384,320.727L400,323.783L416,326.314L432,328.431L448,330.22L464,331.747L480,333.062L496,334.205L512,335.205L528,336.087L544,336.869L560,337.568L576,338.194L592,338.76L608,339.272L624,339.738L640,340.163" stroke="#228833" stroke-width="2"/></g></g><path class="foreground" aria-hidden="true" d="" display="none"/></g><g transform="translate(0,0)"><path class="background" aria-hidden="true" d="M0,0h640v400h-640Z"/><g><g class="mark-line role-mark layer_2_marks" role="graphics-object" aria-roledescription="line mark container"><path aria-label="gradient (%): −20; v(g) / v(0): 3.32619537523; assumptions: FTP model" role="graphics-symbol" aria-roledescription="line mark" d="M0,67.38L16,76.412L32,85.731L48,95.362L64,105.327L80,115.655L96,126.378L112,137.535L128,149.168L144,161.326L160,174.066L176,187.448L192,201.531L208,216.36L224,231.928L240,248.095L256,264.401L272,279.744L288,292.123L304,299.252L320,300L336,306.835L352,312.439L368,321.865L384,331.385L400,339.422L416,346.131L432,351.715L448,356.374L464,360.287L480,363.599L496,366.427L512,368.861L528,370.973L544,372.82L560,374.447L576,375.89L592,377.176L608,378.329L624,379.367L640,380.308" stroke="#4477AA" stroke-width="2"/></g></g><path class="foreground" aria-hidden="true" d="" display="none"/></g></g><g class="mark-group role-legend" role="graphics-symbol" aria-roledescription="legend" aria-label="Symbol legend titled 'assumptions' for stroke color with 3 values: FTP model, constant power, freewheel model"><g transform="translate(532,18)"><path class="background" aria-hidden="true" d="M0,0h90v53h-90Z" pointer-events="none"/><g><g class="mark-group role-legend-entry"><g transform="translate(0,16)"><path class="background" aria-hidden="true" d="M0,0h0v0h0Z" pointer-events="none"/><g><g class="mark-group role-scope" role="graphics-object" aria-roledescription="group mark container"><g transform="translate(0,0)"><path class="background" aria-hidden="true" d="M0,0h89.3740234375v11h-89.3740234375Z" pointer-events="none" opacity="1"/><g><g class="mark-symbol role-legend-symbol" pointer-events="none"><path transform="translate(6,6)" d="M-5,0L5,0" stroke="#4477AA" stroke-width="1.5" opacity="1"/></g><g class="mark-text role-legend-label" pointer-events="none"><text text-anchor="start" transform="translate(16,9)" font-family="sans-serif" font-size="10px" fill="#000" opacity="1">FTP model</text></g></g><path class="foreground" aria-hidden="true" d="" pointer-events="none" display="none"/></g><g transform="translate(0,13)"><path class="background" aria-hidden="true" d="M0,0h89.3740234375v11h-89.3740234375Z" pointer-events="none" opacity="1"/><g><g class="mark-symbol role-legend-symbol" pointer-events="none"><path transform="translate(6,6)" d="M-5,0L5,0" stroke="#EE6677" stroke-width="1.5" opacity="1"/></g><g class="mark-text role-legend-label" pointer-events="none"><text text-anchor="start" transform="translate(16,9)" font-family="sans-serif" font-size="10px" fill="#000" opacity="1">constant power</text></g></g><path class="foreground" aria-hidden="true" d="" pointer-events="none" display="none"/></g><g transform="translate(0,26)"><path class="background" aria-hidden="true" d="M0,0h89.3740234375v11h-89.3740234375Z" pointer-events="none" opacity="1"/><g><g class="mark-symbol role-legend-symbol" pointer-events="none"><path transform="translate(6,6)" d="M-5,0L5,0" stroke="#228833" stroke-width="1.5" opacity="1"/></g><g class="mark-text role-legend-label" pointer-events="none"><text text-anchor="start" transform="translate(16,9)" font-family="sans-serif" font-size="10px" fill="#000" opacity="1">freewheel model</text></g></g><path class="foreground" aria-hidden="true" d="" pointer-events="none" display="none"/></g></g></g><path class="foreground" aria-hidden="true" d="" pointer-events="none" display="none"/></g></g><g class="mark-text role-legend-title" pointer-events="none"><text text-anchor="start" transform="translate(0,9)" font-family="sans-serif" font-size="11px" font-weight="bold" fill="#000" opacity="1">assumptions</text></g></g><path class="foreground" aria-hidden="true" d="" pointer-events="none" display="none"/></g></g><g class="mark-group role-title"><g transform="translate(-38.29150390625,-23)"><path class="background" aria-hidden="true" d="M0,0h0v0h0Z" pointer-events="none"/><g><g class="mark-text role-title-text" role="graphics-symbol" aria-roledescription="title" aria-label="Title text 'Speed ratio vs gradient'" pointer-events="none"><text text-anchor="start" transform="translate(0,10)" font-family="Helvetica, Arial, sans-serif" font-size="13px" font-weight="normal" fill="#000" opacity="1">Speed ratio vs gradient</text></g></g><path class="foreground" aria-hidden="true" d="" pointer-events="none" display="none"/></g></g></g><path class="foreground" aria-hidden="true" d="" display="none"/></g></g></g></svg>