<svg xmlns="http://www.w3.org/2000/svg" xmlns:xlink="http://www.w3.org/1999/xlink" version="1.1" class="marks" width="741" height="475" viewBox="0 0 741 475"><rect width="741" height="475" fill="white"/><g fill="none" stroke-miterlimit="10" transform="translate(89,33)"><g class="mark-group role-frame root" role="graphics-object" aria-roledescription="group mark container"><g transform="translate(0,0)"><path class="background" aria-hidden="true" d="M0,0h640v400h-640Z"/><g><g class="mark-group role-axis" role="graphics-symbol" aria-roledescription="axis" aria-label="X-axis titled 'gradient (%)' for a linear scale with values from −20 to 20"><g transform="translate(0.5,400.5)"><path class="background" aria-hidden="true" d="M0,0h0v0h0Z" pointer-events="none"/><g><g class="mark-rule role-axis-tick" pointer-events="none"><line transform="translate(0,0)" x2="0" y2="4" stroke="#888" stroke-width="1" opacity="1"/><line transform="translate(32,0)" x2="0" y2="4" stroke="#888" stroke-width="1" opacity="1"/><line transform="translate(64,0)" x2="0" y2="4" stroke="#888" stroke-width="1" opacity="1"/><line transform="translate(96,0)" x2="0" y2="4" stroke="#888" stroke-width="1" opacity="1"/><line transform="translate(128,0)" x2="0" y2="4" stroke="#888" stroke-width="1" opacity="1"/><line transform="translate(160,0)" x2="0" y2="4" stroke="#888" stroke-width="1" opacity="1"/><line transform="translate(192,0)" x2="0" y2="4" stroke="#888" stroke-width="1" opacity="1"/><line transform="translate(224,0)" x2="0" y2="4" stroke="#888" stroke-width="1" opacity="1"/><line transform="translate(256,0)" x2="0" y2="4" stroke="#888" stroke-width="1" opacity="1"/><line transform="translate(288,0)" x2="0" y2="4" stroke="#888" stroke-width="1" opacity="1"/><line transform="translate(320,0)" x2="0" y2="4" stroke="#888" stroke-width="1" opacity="1"/><line transform="translate(352,0)" x2="0" y2="4" stroke="#888" stroke-width="1" opacity="1"/><line transform="translate(384,0)" x2="0" y2="4" stroke="#888" stroke-width="1" opacity="1"/><line transform="translate(416,0)" x2="0" y2="4" stroke="#888" stroke-width="1" opacity="1"/><line transform="translate(448,0)" x2="0" y2="4" stroke="#888" stroke-width="1" opacity="1"/><line transform="translate(480,0)" x2="0" y2="4" stroke="#888" stroke-width="1" opacity="1"/><line transform="translate(512,0)" x2="0" y2="4" stroke="#888" stroke-width="1" opacity="1"/><line transform="translate(544,0)" x2="0" y2="4" stroke="#888" stroke-width="1" opacity="1"/><line transform="translate(576,0)" x2="0" y2="4" stroke="#888" stroke-width="1" opacity="1"/><line transform="translate(608,0)" x2="0" y2="4" stroke="#888" stroke-width="1" opacity="1"/><line transform="translate(640,0)" x2="0" y2="4" stroke="#888" stroke-width="1" opacity="1"/></g><g class="mark-text role-axis-label" pointer-events="none"><text text-anchor="start" transform="translate(0,15)" font-family="Helvetica, Arial, sans-serif" font-size="11px" fill="#333" opacity="1">−20</text><text text-anchor="middle" transform="translate(32,15)" font-family="Helvetica, Arial, sans-serif" font-size="11px" fill="#333" opacity="1">−18</text><text text-anchor="middle" transform="translate(64,15)" font-family="Helvetica, Arial, sans-serif" font-size="11px" fill="#333" opacity="1">−16</text><text text-anchor="middle" transform="translate(96,15)" font-family="Helvetica, Arial, sans-serif" font-size="11px" fill="#333" opacity="1">−14</text><text text-anchor="middle" transform="translate(128,15)" font-family="Helvetica, Arial, sans-serif" font-size="11px" fill="#333" opacity="1">−12</text><text text-anchor="middle" transform="translate(160,15)" font-family="Helvetica, Arial, sans-serif" font-size="11px" fill="#333" opacity="1">−10</text><text text-anchor="middle" transform="translate(192,15)" font-family="Helvetica, Arial, sans-serif" font-size="11px" fill="#333" opacity="1">−8</text><text text-anchor="middle" transform="translate(224,15)" font-family="Helvetica, Arial, sans-serif" font-size="11px" fill="#333" opacity="1">−6</text><text text-anchor="middle" transform="translate(256,15)" font-family="Helvetica, Arial, sans-serif" font-size="11px" fill="#333" opacity="1">−4</text><text text-anchor="middle" transform="translate(288,15)" font-family="Helvetica, Arial, sans-serif" font-size="11px" fill="#333" opacity="1">−2</text><text text-anchor="middle" transform="translate(320,15)" font-family="Helvetica, Arial, sans-serif" font-size="11px" fill="#333" opacity="1">0</text><text text-anchor="middle" transform="translate(352,15)" font-family="Helvetica, Arial, sans-serif" font-size="11px" fill="#333" opacity="1">2</text><text text-anchor="middle" transform="translate(384,15)" font-family="Helvetica, Arial, sans-serif" font-size="11px" fill="#333" opacity="1">4</text><text text-anchor="middle" transform="translate(416,15)" font-family="Helvetica, Arial, sans-serif" font-size="11px" fill="#333" opacity="1">6</text><text text-anchor="middle" transform="translate(448,15)" font-family="Helvetica, Arial, sans-serif" font-size="11px" fill="#333" opacity="1">8</text><text text-anchor="middle" transform="translate(480,15)" font-family="Helvetica, Arial, sans-serif" font-size="11px" fill="#333" opacity="1">10</text><text text-anchor="middle" transform="translate(512,15)" font-family="Helvetica, Arial, sans-serif" font-size="11px" fill="#333" opacity="1">12</text><text text-anchor="middle" transform="translate(544,15)" font-family="Helvetica, Arial, sans-serif" font-size="11px" fill="#333" opacity="1">14</text><text text-anchor="middle" transform="translate(576,15)" font-family="Helvetica, Arial, sans-serif" font-size="11px" fill="#333" opacity="1">16</text><text text-anchor="middle" transform="translate(608,15)" font-family="Helvetica, Arial, sans-serif" font-size="11px" fill="#333" opacity="1">18</text><text text-anchor="end" transform="translate(640,15)" font-family="Helvetica, Arial, sans-serif" font-size="11px" fill="#333" opacity="1">20</text></g><g class="mark-rule role-axis-domain" pointer-events="none"><line transform="translate(0,0)" x2="640" y2="0" stroke="#888" stroke-width="1" opacity="1"/></g><g class="mark-text role-axis-title" pointer-events="none"><text text-anchor="middle" transform="translate(320,30)" font-family="Helvetica, Arial, sans-serif" font-size="12px" font-weight="normal" fill="#333" opacity="1">gradient (%)</text></g></g><path class="foreground" aria-hidden="true" d="" pointer-events="none" display="none"/></g></g><g class="mark-group role-axis" role="graphics-symbol" aria-roledescription="axis" aria-label="Y-axis titled 'P(g) / P(0)' for a linear scale with values from 0 to 5"><g transform="translate(0.5,0.5)"><path class="background" aria-hidden="true" d="M0,0h0v0h0Z" pointer-events="none"/><g><g class="mark-rule role-axis-tick" pointer-events="none"><line transform="translate(0,400)" x2="-4" y2="0" stroke="#888" stroke-width="1" opacity="1"/><line transform="translate(0,356)" x2="-4" y2="0" stroke="#888" stroke-width="1" opacity="1"/><line transform="translate(0,311)" x2="-4" y2="0" stroke="#888" stroke-width="1" opacity="1"/><line transform="translate(0,267)" x2="-4" y2="0" stroke="#888" stroke-width="1" opacity="1"/><line transform="translate(0,222)" x2="-4" y2="0" stroke="#888" stroke-width="1" opacity="1"/><line transform="translate(0,178)" x2="-4" y2="0" stroke="#888" stroke-width="1" opacity="1"/><line transform="translate(0,133)" x2="-4" y2="0" stroke="#888" stroke-width="1" opacity="1"/><line transform="translate(0,89)" x2="-4" y2="0" stroke="#888" stroke-width="1" opacity="1"/><line transform="translate(0,44)" x2="-4" y2="0" stroke="#888" stroke-width="1" opacity="1"/><line transform="translate(0,0)" x2="-4" y2="0" stroke="#888" stroke-width="1" opacity="1"/></g><g class="mark-text role-axis-label" pointer-events="none"><text text-anchor="end" transform="translate(-6,403)" font-family="Helvetica, Arial, sans-serif" font-size="11px" fill="#333" opacity="1">0.0</text><text text-anchor="end" transform="translate(-6,358.55555555555554)" font-family="Helvetica, Arial, sans-serif" font-size="11px" fill="#333" opacity="1">0.5</text><text text-anchor="end" transform="translate(-6,314.11111111111114)" font-family="Helvetica, Arial, sans-serif" font-size="11px" fill="#333" opacity="1">1.0</text><text text-anchor="end" transform="translate(-6,269.6666666666667)" font-family="Helvetica, Arial, sans-serif" font-size="11px" fill="#333" opacity="1">1.5</text><text text-anchor="end" transform="translate(-6,225.22222222222223)" font-family="Helvetica, Arial, sans-serif" font-size="11px" fill="#333" opacity="1">2.0</text><text text-anchor="end" transform="translate(-6,180.77777777777777)" font-family="Helvetica, Arial, sans-serif" font-size="11px" fill="#333" opacity="1">2.5</text><text text-anchor="end" transform="translate(-6,136.33333333333334)" font-family="Helvetica, Arial, sans-serif" font-size="11px" fill="#333" opacity="1">3.0</text><text text-anchor="end" transform="translate(-6,91.88888888888889)" font-family="Helvetica, Arial, sans-serif" font-size="11px" fill="#333" opacity="1">3.5</text><text text-anchor="end" transform="translate(-6,47.444444444444464)" font-family="Helvetica, Arial, sans-serif" font-size="11px" fill="#333" opacity="1">4.0</text><text text-anchor="end" transform="translate(-6,3)" font-family="Helvetica, Arial, sans-serif" font-size="11px" fill="#333" opacity="1">4.5</text></g><g class="mark-rule role-axis-domain" pointer-events="none"><line transform="translate(0,400)" x2="0" y2="-400" stroke="#888" stroke-width="1" opacity="1"/></g><g class="mark-text role-axis-title" pointer-events="none"><text text-anchor="middle" transform="translate(-25.29150390625,200) rotate(-90) translate(0,-3)" font-family="Helvetica, Arial, sans-serif" font-size="12px" font-weight="normal" fill="#333" opacity="1">P(g) / P(0)</text></g></g><path class="foreground" aria-hidden="true" d="" pointer-events="none" display="none"/></g></g><g class="mark-rule role-mark layer_0_marks" role="graphics-object" aria-roledescription="rule mark container"><line aria-label="x: 0" role="graphics-symbol" aria-roledescription="rule mark" transform="translate(320,0)" x2="0" y2="400" stroke="grey" stroke-dasharray="2,2"/></g><g class="mark-rule role-mark layer_1_marks" role="graphics-object" aria-roledescription="rule mark container"><line aria-label="y: 1" role="graphics-symbol" aria-roledescription="rule mark" transform="translate(640,311.11111111111114)" x2="-640" y2="0" stroke="grey" stroke-dasharray="2,2"/></g><g class="mark-group role-scope layer_2_pathgroup" role="graphics-object" aria-roledescription="group mark container"><g transform="translate(0,0)"><path class="background" aria-hidden="true" d="M0,0h640v400h-640Z"/><g><g class="mark-line role-mark layer_2_marks" role="graphics-object" aria-roledescription="line mark container"><path aria-label="gradient (%): −20; P(g) / P(0): 1; assumptions: constant power" role="graphics-symbol" aria-roledescription="line mark" d="M0,311.111L16,311.111L32,311.111L48,311.111L64,311.111L80,311.111L96,311.111L112,311.111L128,311.111L144,311.111L160,311.111L176,311.111L192,311.111L208,311.111L224,311.111L240,311.111L256,311.111L272,311.111L288,311.111L304,311.111L320,311.111L336,311.111L352,311.111L368,311.111L384,311.111L400,311.111L416,311.111L432,311.111L448,311.111L464,311.111L480,311.111L496,311.111L512,311.111L528,311.111L544,311.111L560,311.111L576,311.111L592,311.111L608,311.111L624,311.111L640,311.111" stroke="#4477AA" stroke-width="2"/></g></g><path class="foreground" aria-hidden="true" d="" display="none"/></g><g transform="translate(0,0)"><path class="background" aria-hidden="true" d="M0,0h640v400h-640Z"/><g><g class="mark-line role-mark layer_2_marks" role="graphics-object" aria-roledescription="line mark container"><path aria-label="gradient (%): −20; P(g) / P(0): 0; assumptions: freewheel model" role="graphics-symbol" aria-roledescription="line mark" d="M0,400L16,400L32,400L48,400L64,400L80,400L96,400L112,400L128,400L144,400L160,400L176,400L192,396.554L208,385.929L224,375.282L240,364.617L256,353.935L272,343.24L288,332.536L304,321.825L320,311.111L336,295.806L352,280.506L368,265.216L384,249.941L400,234.684L416,219.451L432,204.247L448,189.074L464,173.939L480,158.845L496,143.796L512,128.797L528,113.852L544,98.965L560,84.14L576,69.381L592,54.691L608,40.075L624,25.536L640,11.077" stroke="#EE6677" stroke-width="2"/></g></g><path class="foreground" aria-hidden="true" d="" display="none"/></g><g transform="translate(0,0)"><path class="background" aria-hidden="true" d="M0,0h640v400h-640Z"/><g><g class="mark-line role-mark layer_2_marks" role="graphics-object" aria-roledescription="line mark container"><path aria-label="gradient (%): −20; P(g) / P(0): 0.000335462627903; assumptions: FTP model" role="graphics-symbol" aria-roledescription="line mark" d="M0,399.97L16,399.956L32,399.934L48,399.901L64,399.852L80,399.78L96,399.671L112,399.51L128,399.268L144,398.909L160,398.372L176,397.571L192,396.377L208,394.595L224,391.936L240,387.97L256,382.054L272,373.227L288,360.06L304,340.416L320,311.111L336,295.806L352,280.506L368,276.82L384,276.82L400,276.82L416,276.82L432,276.82L448,276.82L464,276.82L480,276.82L496,276.82L512,276.82L528,276.82L544,276.82L560,276.82L576,276.82L592,276.82L608,276.82L624,276.82L640,276.82" stroke="#228833" stroke-width="2"/></g></g><path class="foreground" aria-hidden="true" d="" display="none"/></g></g><g class="mark-group role-legend" role="graphics-symbol" aria-roledescription="legend" aria-label="Symbol legend titled 'assumptions' for stroke color with 3 values: constant power, freewheel model, FTP model"><g transform="translate(18,18)"><path class="background" aria-hidden="true" d="M0,0h90v53h-90Z" pointer-events="none"/><g><g class="mark-group role-legend-entry"><g transform="translate(0,16)"><path class="background" aria-hidden="true" d="M0,0h0v0h0Z" pointer-events="none"/><g><g class="mark-group role-scope" role="graphics-object" aria-roledescription="group mark container"><g transform="translate(0,0)"><path class="background" aria-hidden="true" d="M0,0h89.3740234375v11h-89.3740234375Z" pointer-events="none" opacity="1"/><g><g class="mark-symbol role-legend-symbol" pointer-events="none"><path transform="translate(6,6)" d="M-5,0L5,0" stroke="#4477AA" stroke-width="1.5" opacity="1"/></g><g class="mark-text role-legend-label" pointer-events="none"><text text-anchor="start" transform="translate(16,9)" font-family="sans-serif" font-size="10px" fill="#000" opacity="1">constant power</text></g></g><path class="foreground" aria-hidden="true" d="" pointer-events="none" display="none"/></g><g transform="translate(0,13)"><path class="background" aria-hidden="true" d="M0,0h89.3740234375v11h-89.3740234375Z" pointer-events="none" opacity="1"/><g><g class="mark-symbol role-legend-symbol" pointer-events="none"><path transform="translate(6,6)" d="M-5,0L5,0" stroke="#EE6677" stroke-width="1.5" opacity="1"/></g><g class="mark-text role-legend-label" pointer-events="none"><text text-anchor="start" transform="translate(16,9)" font-family="sans-serif" font-size="10px" fill="#000" opacity="1">freewheel model</text></g></g><path class="foreground" aria-hidden="true" d="" pointer-events="none" display="none"/></g><g transform="translate(0,26)"><path class="background" aria-hidden="true" d="M0,0h89.3740234375v11h-89.3740234375Z" pointer-events="none" opacity="1"/><g><g class="mark-symbol role-legend-symbol" pointer-events="none"><path transform="translate(6,6)" d="M-5,0L5,0" stroke="#228833" stroke-width="1.5" opacity="1"/></g><g class="mark-text role-legend-label" pointer-events="none"><text text-anchor="start" transform="translate(16,9)" font-family="sans-serif" font-size="10px" fill="#000" opacity="1">FTP model</text></g></g><path class="foreground" aria-hidden="true" d="" pointer-events="none" display="none"/></g></g></g><path class="foreground" aria-hidden="true" d="" pointer-events="none" display="none"/></g></g><g class="mark-text role-legend-title" pointer-events="none"><text text-anchor="start" transform="translate(0,9)" font-family="sans-serif" font-size="11px" font-weight="bold" fill="#000" opacity="1">assumptions</text></g></g><path class="foreground" aria-hidden="true" d="" pointer-events="none" display="none"/></g></g><g class="mark-group role-title"><g transform="translate(-38.29150390625,-23)"><path class="background" aria-hidden="true" d="M0,0h0v0h0Z" pointer-events="none"/><g><g class="mark-text role-title-text" role="graphics-symbol" aria-roledescription="title" aria-label="Title text 'Rider power vs gradient'" pointer-events="none"><text text-anchor="start" transform="translate(0,10)" font-family="Helvetica, Arial, sans-serif" font-size="13px" font-weight="normal" fill="#000" opacity="1">Rider power vs gradient</text></g></g><path class="foreground" aria-hidden="true" d="" pointer-events="none" display="none"/></g></g></g><path class="foreground" aria-hidden="true" d="" display="none"/></g></g></g></svg>